<svg width="44" height="55" viewBox="0 0 44 40" fill="none" xmlns="http://www.w3.org/2000/svg">
<g id="noun-calendar-2080654 1">
<g id="Group">
<g id="Group_2">
<g id="Group_3">
<path id="Vector" d="M36.7163 4.12305H34.8935L34.3727 6.03265C33.9387 7.76865 32.2461 9.07065 30.5101 9.07065C29.5553 9.07065 28.6439 8.68005 28.1231 7.94225C27.5589 7.20445 27.3853 6.20625 27.6457 5.25145L27.9495 4.12305H22.0905L21.5697 6.03265C21.0923 7.76865 19.4431 9.07065 17.6637 9.07065C16.7089 9.07065 15.8409 8.68005 15.2767 7.94225C14.7125 7.20445 14.5389 6.20625 14.7993 5.25145L15.1031 4.12305H13.1935C10.2857 4.12305 7.37789 6.37985 6.64009 9.28765L1.25849 29.1214C0.824493 30.6838 1.08489 32.2462 1.99629 33.3746C2.86429 34.503 4.20969 35.154 5.72869 35.154H8.37609V36.3258C8.37609 39.4072 10.8933 41.9244 13.9747 41.9244H36.7163C39.7977 41.9244 42.3149 39.4072 42.3149 36.3258V9.72165C42.3149 6.64025 39.7977 4.12305 36.7163 4.12305ZM5.77209 31.7688C5.42489 31.7688 4.99089 31.682 4.73049 31.3348C4.47009 31.031 4.42669 30.5536 4.60029 30.0328L9.02709 13.454H36.0219L31.8121 29.1648C31.4215 30.597 29.9025 31.8122 28.5137 31.8122H5.77209V31.7688ZM38.9297 36.3258C38.9297 37.541 37.9315 38.5392 36.7163 38.5392H14.0181C12.8029 38.5392 11.8047 37.541 11.8047 36.3258V35.154H28.5137C31.4215 35.154 34.3293 32.8972 35.0671 29.9894L38.9297 15.624V36.3258Z" fill="#B82132"/>
<path id="Vector_2" d="M17.6638 7.50819C18.7054 7.50819 19.747 6.68359 20.0074 5.64199L20.615 3.34179C20.8754 2.30019 20.2678 1.47559 19.2696 1.47559C18.228 1.47559 17.1864 2.30019 16.926 3.34179L16.3184 5.64199C16.058 6.64019 16.6656 7.50819 17.6638 7.50819Z" fill="#B82132"/>
<path id="Vector_3" d="M30.5102 7.50819C31.5518 7.50819 32.5934 6.68359 32.8538 5.64199L33.4614 3.34179C33.7218 2.30019 33.1142 1.47559 32.116 1.47559C31.0744 1.47559 30.0328 2.30019 29.7724 3.34179L29.1214 5.64199C28.861 6.64019 29.4686 7.50819 30.5102 7.50819Z" fill="#B82132"/>
<path id="Vector_4" d="M21.7866 23.653H17.7504C17.49 23.653 17.1862 23.87 17.0994 24.1304L16.3182 27.0816C16.2314 27.342 16.405 27.559 16.6654 27.559H20.7016C20.962 27.559 21.2658 27.342 21.3526 27.0816L22.1338 24.1304C22.2206 23.87 22.047 23.653 21.7866 23.653Z" fill="#B82132"/>
<path id="Vector_5" d="M14.6692 23.653H10.633C10.3726 23.653 10.0688 23.87 9.982 24.1304L9.2008 27.0816C9.114 27.342 9.2876 27.559 9.548 27.559H13.5842C13.8446 27.559 14.1484 27.342 14.2352 27.0816L15.0164 24.1304C15.1032 23.87 14.973 23.653 14.6692 23.653Z" fill="#B82132"/>
<path id="Vector_6" d="M28.9043 23.653H24.8681C24.6077 23.653 24.3039 23.87 24.2171 24.1304L23.4359 27.0816C23.3491 27.342 23.5227 27.559 23.7831 27.559H27.8193C28.0797 27.559 28.3835 27.342 28.4703 27.0816L29.2515 24.1304C29.3383 23.87 29.1647 23.653 28.9043 23.653Z" fill="#B82132"/>
<path id="Vector_7" d="M23.436 17.4468H19.3998C19.1394 17.4468 18.8356 17.6638 18.7488 17.9242L17.9676 20.8754C17.8808 21.1358 18.0544 21.3528 18.3148 21.3528H22.351C22.6114 21.3528 22.9152 21.1358 23.002 20.8754L23.7832 17.9242C23.87 17.6638 23.7398 17.4468 23.436 17.4468Z" fill="#B82132"/>
<path id="Vector_8" d="M16.3618 17.4468H12.3256C12.0652 17.4468 11.7614 17.6638 11.6746 17.9242L10.8934 20.8754C10.8066 21.1358 10.9802 21.3528 11.2406 21.3528H15.2768C15.5372 21.3528 15.841 21.1358 15.9278 20.8754L16.709 17.9242C16.7958 17.6638 16.6222 17.4468 16.3618 17.4468Z" fill="#B82132"/>
<path id="Vector_9" d="M25.4756 21.3962H29.5118C29.7722 21.3962 30.076 21.1792 30.1628 20.9188L30.944 17.9676C31.0308 17.7072 30.8572 17.4902 30.5968 17.4902H26.5606C26.3002 17.4902 25.9964 17.7072 25.9096 17.9676L25.1284 20.9188C25.0416 21.1358 25.1718 21.3962 25.4756 21.3962Z" fill="#B82132"/>
</g>
</g>
</g>
</g>
</svg>
