<svg width="31" height="36" viewBox="0 0 31 36" fill="none" xmlns="http://www.w3.org/2000/svg">
<path d="M15.4446 3.5C8.55285 3.5 2.94458 9.10827 2.94458 16C2.94458 22.8917 8.55285 28.5 15.4446 28.5C22.3363 28.5 27.9446 22.8917 27.9446 16C27.9446 9.10827 22.3363 3.5 15.4446 3.5ZM15.4446 22.9333C12.4947 22.9333 9.70298 22.9333 9.70298 20.6583C9.70298 18.2417 11.203 16.1666 13.328 15.325C12.4947 14.6917 11.9531 13.6834 11.9531 12.5583C11.9531 10.6333 13.5197 9.06661 15.4448 9.06661C17.3699 9.06661 18.9365 10.6333 18.9365 12.5583C18.9365 13.6834 18.3949 14.6917 17.5615 15.325C19.6866 16.1667 21.1866 18.2418 21.1866 20.6583C21.1866 22.9333 18.0031 22.9333 15.445 22.9333H15.4446Z" fill="#898989"/>
<path d="M17.2697 12.5584C17.2697 13.5667 16.453 14.3834 15.4446 14.3834C14.4363 14.3834 13.6196 13.5668 13.6196 12.5584C13.6196 11.5501 14.4363 10.7334 15.4446 10.7334C16.453 10.7334 17.2697 11.5501 17.2697 12.5584Z" fill="#898989"/>
<path d="M15.4443 16.5834C13.2027 16.5834 11.3694 18.4168 11.3694 20.6584C11.3694 21.2667 13.7277 21.2667 15.4443 21.2667C18.811 21.2667 19.5192 20.9334 19.5192 20.6584C19.5192 18.4167 17.6859 16.5834 15.4443 16.5834Z" fill="#898989"/>
</svg>
