<svg width="64" height="89" viewBox="0 0 64 89" fill="none" xmlns="http://www.w3.org/2000/svg">
<path d="M54.4905 41.9753C53.6541 41.1934 52.5541 40.8539 51.4905 41.039H51.4723C51.5269 39.8765 51.1178 38.7036 50.2814 37.9217C49.545 37.2324 48.5814 36.9341 47.6451 37.0884C47.4087 37.1296 47.1814 37.2016 46.9632 37.2942C46.8814 36.3065 46.4541 35.3703 45.7178 34.7427C45.0269 34.1563 44.1724 33.9094 43.3178 34.0637C42.8996 34.1358 42.4996 34.3107 42.1451 34.5473C41.8996 33.5391 41.3178 32.6337 40.4451 32.0987C39.6269 31.5946 38.6814 31.4814 37.7814 31.7798C36.8814 32.0781 36.1451 32.7571 35.6996 33.6933L32.5178 40.3396L22.1725 28.8992L28.1268 7.89117C28.2359 7.5208 28.145 7.11955 27.8904 6.85209C27.645 6.59489 27.2813 6.51259 26.9631 6.65661L8.69056 14.8252C8.40874 14.9486 8.20874 15.2264 8.1451 15.5556C8.09056 15.8951 8.18147 16.2346 8.39965 16.4713L20.5451 29.8974L30.3266 40.6997L30.3357 40.71C28.9448 40.9981 27.6902 41.9755 26.9993 43.5084L25.1812 47.531C24.4175 49.2286 24.5175 51.2656 25.4448 52.8603L29.7357 60.2473L24.9448 70.1548C24.7084 70.6383 24.863 71.2453 25.2902 71.5128C25.4266 71.5951 25.5721 71.6363 25.7084 71.6363C26.0175 71.6363 26.3266 71.4511 26.4811 71.1219L31.5266 60.6797C31.6811 60.3505 31.6721 59.9595 31.4902 59.6509L26.9084 51.7701C26.3266 50.7824 26.272 49.5067 26.7448 48.447L28.563 44.4244C29.2721 42.8503 30.9448 42.1816 32.3721 42.9017C32.3812 42.9017 32.3902 42.9017 32.3993 42.912L32.4084 42.9223C32.4448 42.9429 32.4812 42.9326 32.5175 42.9429C32.5812 42.9635 32.6448 42.984 32.7175 42.984H32.7357C32.7993 42.984 32.8539 42.9738 32.9175 42.9635C32.9357 42.9635 32.963 42.9429 32.9812 42.9326C32.9993 42.9223 33.0266 42.912 33.0448 42.9017C33.0539 42.9017 33.063 42.9017 33.0721 42.8915C33.1266 42.8709 33.1721 42.84 33.2266 42.7989L33.2539 42.768C33.2812 42.7474 33.2993 42.7166 33.3266 42.696L33.3539 42.6651C33.3993 42.6137 33.4448 42.5519 33.4721 42.4902L33.4993 42.4594L37.2448 34.651C37.463 34.188 37.8357 33.8588 38.272 33.7045C38.7175 33.5604 39.1902 33.6119 39.5902 33.8588C40.4266 34.3732 40.7448 35.5666 40.2902 36.5131L39.2993 38.6016L37.8084 40.9987C37.5266 41.4513 37.6266 42.0686 38.0175 42.3876C38.4175 42.7065 38.9629 42.5933 39.2448 42.1509L42.6448 36.6983C42.863 36.3382 43.1994 36.1119 43.5812 36.0399C43.963 35.9678 44.3448 36.081 44.6448 36.3382C45.1812 36.7909 45.3539 37.6242 45.063 38.3033L43.4903 41.9864L42.0267 44.5481C41.763 45.0111 41.8812 45.6284 42.2903 45.9268C42.6994 46.2252 43.2448 46.0914 43.5085 45.6284L46.8176 39.8465C47.0631 39.4144 47.454 39.1367 47.8994 39.0544C48.3449 38.9824 48.7903 39.1161 49.1449 39.4453C49.7448 40.0112 49.8903 40.9988 49.4721 41.7499L47.9449 44.5277L46.3722 47.2951C46.1085 47.7581 46.2267 48.3754 46.6358 48.6738C47.0449 48.9722 47.5903 48.8384 47.854 48.3754L50.3358 44.0133C50.654 43.4474 51.154 43.0874 51.7358 42.9845C52.3176 42.8713 52.8903 43.0565 53.3448 43.4886C54.1358 44.2293 54.3176 45.5257 53.763 46.5133L40.0083 70.8959C39.7446 71.3588 39.8628 71.9761 40.2719 72.2745C40.4174 72.3774 40.581 72.4288 40.7446 72.4288C41.0355 72.4288 41.3174 72.2642 41.4901 71.9659L55.2722 47.6143C56.3085 45.783 55.9721 43.3653 54.4903 41.9764L54.4905 41.9753Z" fill="#B82132"/>
</svg>
