<svg width="34" height="39" viewBox="0 0 34 42" fill="none" xmlns="http://www.w3.org/2000/svg">
<path id="Vector" fill-rule="evenodd" clip-rule="evenodd" d="M17.1112 3.26666H14.3778V19.6667H11.6445V22.4H8.91118V25.1333H6.17785V27.8667H3.44451V30.6H0.711182V36.0667H3.44451V38.8H19.8445V36.0667H22.5778V33.3333H25.3112V30.6H28.0445V27.8667H30.7778V25.1333H33.5112V16.9333H30.7778V3.26666H28.0445V0.533325H17.1112V3.26666ZM17.1112 3.26666H19.8445V5.99999H25.3112V3.26666H28.0445V16.9333H30.7778V25.1333H28.0445V27.8667H25.3112V30.6H22.5778V33.3333H19.8445V36.0667H17.1112V33.3333H14.3778V36.0667H11.6445V33.3333H8.91118V36.0667H3.44451V30.6H6.17785V27.8667H8.91118V25.1333H11.6445V22.4H14.3778V19.6667H17.1112V3.26666Z" fill="#B82132"/>
</svg>
