<svg width="44" height="54" viewBox="0 0 44 40" fill="none" xmlns="http://www.w3.org/2000/svg">
  <g id="noun-find-3202264 1">
    <g id="Group">
      <g id="Group_2">
        <g id="Group_3">
          <path id="Vector" d="M10.4977 23.2416C9.76326 23.2416 9.20166 23.8032 9.20166 24.5376C9.20166 25.272 9.76326 25.8336 10.4977 25.8336C11.7073 25.8336 12.7009 26.8272 12.7009 28.0368C12.7009 28.7712 13.2625 29.3328 13.9969 29.3328C14.7313 29.3328 15.2929 28.7712 15.2929 28.0368C15.2497 25.3584 13.1329 23.2416 10.4977 23.2416Z" fill="#B82132"/>
          <path id="Vector_2" d="M41.9904 26.3952C41.4288 23.1984 38.664 15.6384 36.6336 10.4112C35.5104 7.51682 32.6592 5.57282 29.592 5.78882C26.0064 6.04802 23.2848 8.98562 23.1552 12.4848C23.1552 12.9168 23.112 13.392 23.112 13.8672C23.112 14.1696 22.8528 14.4288 22.5504 14.4288H20.6064C20.304 14.4288 20.0448 14.1696 20.0448 13.8672C20.0448 13.4784 20.0448 13.0896 20.0016 12.744C19.9152 9.63362 17.8848 6.82562 14.904 6.04802C11.448 5.09762 7.86242 6.95522 6.60962 10.2384C4.57922 15.4656 1.72802 23.1984 1.16642 26.4384C0.345615 31.536 3.75842 36.3744 8.89922 37.2816C13.9968 38.1456 18.8784 34.7328 19.7424 29.6352C19.8288 29.0304 19.9152 28.2096 20.0016 27.3024C20.0448 26.4384 20.7792 25.7904 21.6 25.7904C22.464 25.7904 23.1552 26.4384 23.1984 27.3024C23.2416 28.2096 23.328 29.0304 23.4576 29.6352C24.3216 34.776 29.2032 38.1888 34.3008 37.2816C39.4416 36.3744 42.8544 31.536 41.9904 26.3952ZM10.4976 34.56C6.86882 34.56 3.93122 31.6224 3.93122 27.9936C3.93122 24.3648 6.86882 21.4272 10.4976 21.4272C14.1264 21.4272 17.064 24.3648 17.064 27.9936C17.0208 31.6224 14.0832 34.56 10.4976 34.56ZM32.7024 34.56C29.0736 34.56 26.136 31.6224 26.136 27.9936C26.136 24.3648 29.0736 21.4272 32.7024 21.4272C36.3312 21.4272 39.2688 24.3648 39.2688 27.9936C39.2688 31.6224 36.3312 34.56 32.7024 34.56Z" fill="#B82132"/>
          <path id="Vector_3" d="M32.7025 23.2416C31.9681 23.2416 31.4065 23.8032 31.4065 24.5376C31.4065 25.272 31.9681 25.8336 32.7025 25.8336C33.9121 25.8336 34.9057 26.8272 34.9057 28.0368C34.9057 28.7712 35.4673 29.3328 36.2017 29.3328C36.9361 29.3328 37.4977 28.7712 37.4977 28.0368C37.4977 25.3584 35.3809 23.2416 32.7025 23.2416Z" fill="#B82132"/>
        </g>
      </g>
    </g>
  </g>
</svg>
