<svg width="44" height="40" viewBox="0 0 44 40" fill="none" xmlns="http://www.w3.org/2000/svg">
<g id="Group">
<path id="Vector" fill-rule="evenodd" clip-rule="evenodd" d="M12.6982 0.388977C10.5607 0.388977 8.82236 2.12653 8.82236 4.26391C8.82236 6.41462 10.5613 8.13978 12.6982 8.13978C14.8489 8.13978 16.5927 6.41462 16.5927 4.26391C16.5927 2.12653 14.8489 0.388977 12.6982 0.388977ZM33.6738 0.388977C31.5363 0.388977 29.798 2.12653 29.798 4.26391C29.798 6.41462 31.5369 8.13978 33.6738 8.13978C35.8245 8.13978 37.5674 6.41462 37.5674 4.26391C37.5674 2.12653 35.8245 0.388977 33.6738 0.388977ZM10.454 9.2833C7.14522 9.2833 3.45461 11.6043 1.80787 14.2525C0.660561 16.1595 0.554997 18.3196 0.563949 21.2893C0.553514 22.1382 1.24068 22.8305 2.08957 22.8279C2.9386 22.8254 3.62159 22.1288 3.60682 21.28C3.59782 18.4087 3.76506 16.9026 4.41564 15.8209C4.91298 14.9944 5.83472 14.1941 7.56635 13.1796C7.02582 15.6834 6.52797 18.1929 6.02214 20.6878C8.43044 26.409 10.8393 32.1305 13.2477 37.8517C13.702 38.9761 14.988 39.5113 16.1055 39.0407C17.2234 38.5702 17.7404 37.276 17.2537 36.1652L11.4413 22.3584L12.1823 19.2691L12.7243 17.0071C14.2762 19.8253 17.8764 20.5901 20.3449 21.1759C20.1244 20.8141 20.0057 20.3859 20.0297 19.9347C20.0649 19.2767 20.1376 18.6399 20.2333 18.0168C17.9745 17.4492 16.7366 16.9554 15.9289 16.163C15.4578 15.7008 14.9995 15.0567 14.6431 14.0656C14.287 13.0745 14.1198 11.9794 13.8027 11.0004L13.7999 10.9921C13.1363 9.27948 11.9396 9.28889 10.454 9.2833ZM31.4286 9.2833C27.8203 9.2833 25.1871 10.4602 23.4668 12.2462C21.6829 14.1678 20.8539 16.8442 20.687 19.9701C20.6423 20.8077 21.2857 21.5234 22.1234 21.5682C22.9611 21.6129 23.6759 20.9695 23.7206 20.1318C23.8639 17.4478 24.5523 15.5421 25.6934 14.3129C26.4209 13.5292 27.3687 12.9518 28.6554 12.6255L28.541 13.1796L28.5392 13.1908L26.9996 20.6766C26.9988 20.6806 26.9978 20.684 26.9968 20.6878C29.4051 26.409 31.8139 32.1296 34.2224 37.8507C34.6767 38.9752 35.9636 39.5113 37.0811 39.0407C38.199 38.5702 38.7151 37.2751 38.2284 36.1643L32.4169 22.3584L33.1569 19.2691L33.6989 17.0071C35.2526 19.8284 38.8592 20.5917 41.328 21.1777C42.1513 21.3841 42.9844 20.8772 43.179 20.0509C43.3734 19.2247 42.8541 18.3993 42.0252 18.2167C39.2303 17.5587 37.8047 17.0471 36.9036 16.163C36.4325 15.7008 35.9741 15.0567 35.6178 14.0656C35.2616 13.0745 35.0945 11.9794 34.7774 11.0004L34.7746 10.9921C34.111 9.27952 32.9142 9.28889 31.4286 9.2833ZM5.548 22.9553L4.07538 30.2617L0.704332 35.8947C0.0669778 36.9262 0.39733 38.2797 1.43786 38.9022C2.47839 39.5247 3.82763 39.1753 4.43517 38.1259L8.10186 31.9956C8.29659 31.67 8.40345 31.2992 8.41051 30.9199L8.41795 29.7727C7.46135 27.5003 6.50458 25.2277 5.548 22.9553ZM26.5236 22.9553L25.0501 30.2617L21.6799 35.8947C21.0426 36.9262 21.3729 38.2797 22.4135 38.9022C23.454 39.5247 24.8023 39.1753 25.4098 38.1259L29.0775 31.9956C29.2722 31.67 29.3781 31.2992 29.3852 30.9199L29.3936 29.7727C28.437 27.5003 27.4802 25.2277 26.5236 22.9553Z" fill="#B82132"/>
</g>
</svg>
