<svg width="31" height="50" viewBox="0 0 31 50" fill="none" xmlns="http://www.w3.org/2000/svg">
<path id="Vector" d="M24.3113 23.7435C24.541 23.1187 24.9252 16.2264 28.6263 11.3106C32.9594 5.55617 27.3145 0 21.2263 0C14.0946 0.0223132 15.006 6.22963 9.14769 12.5935C9.14314 12.5935 9.14314 12.5935 9.14314 12.598C4.50999 16.3532 -1.89893 21.5117 0.533782 27.077C3.66424 33.3381 6.65631 37.5639 9.39107 40.3754C2.44562 44.3359 2.12087 44.1954 2.31874 44.5345C2.53926 44.9227 2.79161 44.3671 9.68672 40.6699C10.0095 40.9979 10.3347 41.3058 10.6529 41.5914C-0.345486 47.7006 0.247561 47.2589 0.400042 47.5178C0.454603 47.6137 0.581912 47.6472 0.679669 47.5936C11.4895 41.5645 10.8802 41.9842 10.9302 41.8438C11.4963 42.3347 12.051 42.7654 12.583 43.1424C6.42204 46.6612 6.01755 46.5697 6.2131 46.9089C6.36769 47.1721 6.06533 47.2101 12.956 43.3946C13.3743 43.6757 13.779 43.9123 14.1746 44.1264C4.151 49.8028 4.01482 49.5552 4.21269 49.8945C4.43776 50.2872 4.51505 49.8187 14.6064 44.3542C15.4021 44.7469 16.1592 45.0281 16.873 45.2155C10.2686 48.982 9.90076 48.8748 10.0917 49.214C10.3167 49.5955 10.5577 49.0466 17.4596 45.3494C28.0128 47.4892 32.7345 30.8795 24.0477 34.0166C23.8886 34.0389 23.4817 34.2375 23.2066 34.0009C22.5814 33.461 23.0475 31.3234 23.0202 31.2051C23.2793 29.612 23.361 26.3405 24.3113 23.7435ZM21.4628 32.8292C21.8243 32.5548 22.0676 32.1018 22.2926 32.3383C22.5222 32.5816 22.0448 32.7913 21.7424 33.126C21.5447 33.3067 21.265 33.0122 21.4628 32.8292ZM21.9948 30.9951C22.0766 30.9148 22.2085 30.9193 22.2858 30.9996C22.5154 31.2361 22.038 31.4458 21.7424 31.7872C21.6606 31.8631 21.4901 31.8185 21.4514 31.7761C21.2196 31.5396 21.6992 31.3298 21.9948 30.9951ZM21.7311 27.6973C21.5492 27.6973 21.456 27.4764 21.5878 27.347C21.9448 27.077 22.1926 26.6196 22.4176 26.8561C22.4995 26.9364 22.4949 27.0658 22.4131 27.1417C21.9016 27.5947 21.8743 27.6973 21.7311 27.6973ZM21.7652 29.0829C21.6765 29.1633 21.5515 29.1588 21.4742 29.0785C21.2446 28.842 21.7265 28.6255 22.0243 28.2908C22.1607 28.1659 22.2926 28.2105 22.3585 28.2953C22.5222 28.5229 22.1653 28.6568 21.7652 29.0829ZM21.456 30.1562C21.8129 29.8817 22.0607 29.4288 22.2858 29.6653C22.5154 29.9018 22.038 30.1116 21.7424 30.4463C21.6606 30.5266 21.5287 30.5221 21.4515 30.4418C21.3696 30.3592 21.3741 30.2298 21.456 30.1562ZM21.2537 0.404075C26.7712 0.404075 32.514 5.46467 28.2986 11.0743C25.7615 14.4369 24.4725 19.3255 23.9383 23.5073C21.4011 24.083 18.3594 22.4786 17.5317 19.1473C16.6701 15.6821 13.1555 15.0306 9.62016 12.6812C15.3173 6.24597 14.5443 0.40476 21.253 0.40476L21.2537 0.404075Z" fill="#B82132"/>
</svg>
